<svg width="698" height="568" viewBox="0 0 698 568" fill="none" xmlns="http://www.w3.org/2000/svg"><g opacity=".1" fill="#fff" clip-path="url(#clip0_157_82052)"><path d="M-280.262-442.805a14.408 14.408 0 0 0 20.362.898 14.412 14.412 0 0 0 .898-20.362l-21.26 19.464zm-243.941 224.438a199.814 199.814 0 0 0-47.025 65.253 14.408 14.408 0 0 0 2.066 16.068 14.397 14.397 0 0 0 4.545 3.434 14.403 14.403 0 0 0 16.021-2.399 14.42 14.42 0 0 0 3.34-4.615 170.855 170.855 0 0 1 40.596-56.396 170.467 170.467 0 0 1 59.749-35.477 14.412 14.412 0 0 0-.423-27.438 14.3 14.3 0 0 0-9.731.468 199.827 199.827 0 0 0-69.138 41.102zm225.881-201.649a14.408 14.408 0 0 0-.443 19.296 14.404 14.404 0 0 0 5.698 4.03 61.406 61.406 0 0 0 10.785 3.413 14.421 14.421 0 0 0 15.182-5.644 14.408 14.408 0 0 0 2.441-10.896 14.412 14.412 0 0 0-11.324-11.581 37.01 37.01 0 0 1-6.118-1.902 14.409 14.409 0 0 0-16.136 3.206l-.085.078zm-103.004 96.652a14.404 14.404 0 0 0-2.218 16.655 14.411 14.411 0 0 0 3.813 4.551 200.286 200.286 0 0 0 70.328 39.252 200.149 200.149 0 0 0 80.015 8.341 14.406 14.406 0 0 0 13.503-16.987 14.416 14.416 0 0 0-3.622-7.222c-3.193-3.487-7.774-5.076-12.123-4.533a171.116 171.116 0 0 1-69.137-7.046 171.24 171.24 0 0 1-60.685-34.012 14.412 14.412 0 0 0-19.874 1.001zm76.513-58.486a14.415 14.415 0 0 0 3.889 22.858 107.112 107.112 0 0 0 39.599 12.518 14.413 14.413 0 0 0 12.65-24.088c-2.414-2.636-5.692-4.168-9.021-4.559a78.28 78.28 0 0 1-29.784-9.311 14.418 14.418 0 0 0-17.333 2.582zm-34.576 32.751a14.408 14.408 0 0 0-3.869 11.737 14.42 14.42 0 0 0 6.647 10.419 153.66 153.66 0 0 0 41.06 20.09 153.561 153.561 0 0 0 45.14 7.131 14.41 14.41 0 0 0 14.825-16.537 14.406 14.406 0 0 0-3.563-7.53c-2.881-3.147-6.726-4.785-10.642-4.794a124.526 124.526 0 0 1-37.124-5.717 124.53 124.53 0 0 1-33.704-16.665 14.41 14.41 0 0 0-18.685 1.788l-.085.078zm289-235.835c-2.55 2.336-4.16 5.529-4.545 8.695a200.038 200.038 0 0 0 1.184 80.516 200.277 200.277 0 0 0 32.912 73.51A14.43 14.43 0 0 0-17.1-438.631a171.214 171.214 0 0 1-28.55-63.279 170.99 170.99 0 0 1-.85-69.567 14.413 14.413 0 0 0-23.974-13.379l.085-.078zm-422.67 400.583c-11.31 10.355-20.9 22.418-28.664 35.622a14.408 14.408 0 0 0-1.68 10.902 14.403 14.403 0 0 0 11.804 10.822c1.87.288 3.779.205 5.618-.244a14.427 14.427 0 0 0 8.897-6.521 124.423 124.423 0 0 1 23.489-29.322c9.355-8.564 19.94-15.442 31.276-20.818a14.414 14.414 0 0 0-1.726-26.575 14.42 14.42 0 0 0-11.008.715 153.328 153.328 0 0 0-38.006 25.419zm465.783-377.057c-2.977 2.725-4.523 6.329-4.603 9.998a153.812 153.812 0 0 0 3.047 45.671 153.69 153.69 0 0 0 16.484 42.591 14.407 14.407 0 0 0 8.545 7.721A14.416 14.416 0 0 0 7.67-456.43a14.407 14.407 0 0 0 7.075-9.089 14.408 14.408 0 0 0-1.842-11.369 124.746 124.746 0 0 1-13.55-35.117 124.514 124.514 0 0 1-2.506-37.567 14.413 14.413 0 0 0-24.123-11.836zm-434.562 411.157a104.719 104.719 0 0 0-13.906 15.545 14.413 14.413 0 0 0 14.407 23.077 14.409 14.409 0 0 0 8.573-5.661 77.934 77.934 0 0 1 22.961-21.022 14.403 14.403 0 0 0 4.089-3.862 14.402 14.402 0 0 0 2.462-10.756 14.413 14.413 0 0 0-10.998-11.647 14.426 14.426 0 0 0-10.88 1.842 107 107 0 0 0-16.708 12.484zM18.399-547.888c-3.402 3.114-4.97 7.207-4.668 11.464a107.23 107.23 0 0 0 8.985 40.547 14.414 14.414 0 0 0 27.093.256 14.419 14.419 0 0 0-.569-11.41 77.94 77.94 0 0 1-6.738-30.41 14.408 14.408 0 0 0-8.68-13.004 14.408 14.408 0 0 0-15.423 2.557zm-449.094 431.652a46.562 46.562 0 0 0-3.933 4.071 14.413 14.413 0 1 0 21.257 19.461 33.408 33.408 0 0 1 4.678-4.282 14.455 14.455 0 0 0 5.505-9.603 14.47 14.47 0 0 0-2.898-10.684 14.459 14.459 0 0 0-20.286-2.608 69.57 69.57 0 0 0-4.323 3.645zM64.823-543.965c-3.656 3.348-5.253 8.093-4.562 12.775.5 3.726 1.35 7.397 2.536 10.965a14.41 14.41 0 0 0 23.358 7.401 14.42 14.42 0 0 0 5.01-10.235 14.411 14.411 0 0 0-.896-5.748 31.007 31.007 0 0 1-1.356-6.262 14.409 14.409 0 0 0-9.32-11.827 14.411 14.411 0 0 0-14.77 2.931zm45.857-5.405a14.41 14.41 0 0 0 9.097 25.028 14.409 14.409 0 0 0 15.033-13.763 14.413 14.413 0 0 0-24.13-11.265zM-398.786-82.921a14.44 14.44 0 0 0-5.346 9.678 14.456 14.456 0 0 0 3.064 10.623 14.436 14.436 0 0 0 9.678 5.346 14.445 14.445 0 1 0-7.396-25.647zm553.954-481.543a14.297 14.297 0 0 0-4.699 15.869 32.088 32.088 0 0 1 1.442 6.184 14.425 14.425 0 0 0 1.741 5.423 14.402 14.402 0 0 0 14.481 7.254 14.4 14.4 0 0 0 9.634-5.645 14.403 14.403 0 0 0 2.71-10.832 60.742 60.742 0 0 0-2.451-11.044 14.412 14.412 0 0 0-22.858-7.209zm105.418-94.016a14.292 14.292 0 0 0-2.746 19.709 171.217 171.217 0 0 1 28.625 63.365 171.087 171.087 0 0 1 .851 69.566 14.421 14.421 0 0 0 2.48 10.75 14.408 14.408 0 0 0 9.356 5.848 14.402 14.402 0 0 0 10.75-2.48 14.418 14.418 0 0 0 5.848-9.356 200.047 200.047 0 0 0-1.184-80.516 200.15 200.15 0 0 0-32.912-73.509 14.397 14.397 0 0 0-9.787-6.352 14.398 14.398 0 0 0-11.281 2.975zm-64.821 70.915a14.297 14.297 0 0 0-4.267 17.194 78.282 78.282 0 0 1 6.739 30.41 14.409 14.409 0 0 0 16.768 13.999 14.405 14.405 0 0 0 7.335-3.552c3.401-3.114 4.891-7.292 4.667-11.464a107.215 107.215 0 0 0-8.985-40.546 14.396 14.396 0 0 0-3.803-5.502 14.407 14.407 0 0 0-18.617-.546l.163.007zm35.496-31.404a14.295 14.295 0 0 0-3.425 18.455 124.508 124.508 0 0 1 13.634 35.039c2.7 12.3 3.519 24.938 2.429 37.483a14.417 14.417 0 0 0 3.248 10.904 14.41 14.41 0 0 0 10.146 5.15 14.427 14.427 0 0 0 10.72-3.815 14.414 14.414 0 0 0 4.612-10.402 153.484 153.484 0 0 0-3.054-45.508 153.691 153.691 0 0 0-16.562-42.676 14.41 14.41 0 0 0-21.748-4.63zM-372.483-44.63a14.413 14.413 0 1 0 19.295 21.415 59.494 59.494 0 0 0 8.333-7.63 14.463 14.463 0 0 0-5.72-23.37 14.473 14.473 0 0 0-15.615 3.823 31.112 31.112 0 0 1-4.677 4.282c-.608.473-1.177.994-1.701 1.557l.085-.078zm-166.588 159.868a14.409 14.409 0 0 0 2.598 23.026 14.412 14.412 0 0 0 8.628 1.87 171.077 171.077 0 0 1 69.136 7.046 170.864 170.864 0 0 1 60.6 34.09 14.441 14.441 0 0 0 23.554-12.529 14.438 14.438 0 0 0-5.189-9.757 200.143 200.143 0 0 0-70.329-39.251 200.02 200.02 0 0 0-80.1-8.264 14.294 14.294 0 0 0-8.983 3.847l.085-.078zm187.28-118.316a14.406 14.406 0 0 0-4.68 9.345 14.409 14.409 0 0 0 11.772 15.522c3.548.645 7.21-.064 10.261-1.987a106.999 106.999 0 0 0 30.614-28.029 14.465 14.465 0 0 0-22.973-17.579 77.941 77.941 0 0 1-22.96 21.022 14.543 14.543 0 0 0-2.112 1.62l.078.086zm-167.645 163.494a14.41 14.41 0 0 0-3.642 15.82 14.414 14.414 0 0 0 13.394 9.174 128.108 128.108 0 0 1 37.124 5.716 124.655 124.655 0 0 1 33.703 16.665 14.414 14.414 0 0 0 22.362-14.846c-.89-3.875-3.282-7-6.369-9.176a153.719 153.719 0 0 0-41.06-20.09 153.6 153.6 0 0 0-45.141-7.131 14.423 14.423 0 0 0-10.371 3.868zM-341.967 44.36a14.408 14.408 0 0 0-.625 18.421 14.412 14.412 0 0 0 17.999 3.97 153.477 153.477 0 0 0 38.092-25.495c11.31-10.355 20.978-22.334 28.663-35.623a14.429 14.429 0 0 0 1.925-5.284 14.427 14.427 0 0 0-2.619-10.715 14.426 14.426 0 0 0-9.429-5.724 14.41 14.41 0 0 0-14.515 6.764 124.525 124.525 0 0 1-23.49 29.322 124.526 124.526 0 0 1-31.36 20.896 14.404 14.404 0 0 0-4.641 3.468zm-168.091 162.496a14.411 14.411 0 0 0 8.286 24.929 77.94 77.94 0 0 1 29.699 9.388 14.409 14.409 0 0 0 15.517-1.086 14.41 14.41 0 0 0 5.492-14.554c-.946-4.449-3.813-7.921-7.48-9.878a107.225 107.225 0 0 0-39.684-12.44 14.409 14.409 0 0 0-11.83 3.641zm169.953-114.021a14.408 14.408 0 0 0-1.808 18.144 14.412 14.412 0 0 0 17.418 5.394 199.827 199.827 0 0 0 69.137-41.102 199.91 199.91 0 0 0 47.188-65.245 14.426 14.426 0 0 0-2.31-15.868 14.419 14.419 0 0 0-9.971-4.749 14.43 14.43 0 0 0-13.775 8.206 170.992 170.992 0 0 1-40.597 56.397 170.981 170.981 0 0 1-59.749 35.476 14.536 14.536 0 0 0-5.456 3.432l-.077-.085zM-510.313 253.36a14.417 14.417 0 0 0-.087 21.336 14.412 14.412 0 0 0 7.07 3.536 32.281 32.281 0 0 1 5.955 1.894 14.444 14.444 0 0 0 19.968-13.345 14.438 14.438 0 0 0-8.917-13.342 60.712 60.712 0 0 0-10.87-3.336 14.424 14.424 0 0 0-13.041 3.342l-.078-.085zM500.801-635.488a14.413 14.413 0 0 0 19.465 21.26l-19.465-21.26zM-519.661 298.811l19.465 21.26a14.414 14.414 0 0 0-19.465-21.26zm775.624-689.499a199.809 199.809 0 0 0-47.103 65.168 14.405 14.405 0 0 0-.794 11.14 14.42 14.42 0 0 0 7.404 8.363 14.424 14.424 0 0 0 16.022-2.4 14.416 14.416 0 0 0 3.339-4.615 170.882 170.882 0 0 1 40.597-56.396c17.262-15.805 37.703-27.798 59.827-35.392a14.474 14.474 0 0 0 8.067-7.579 14.468 14.468 0 0 0-2.644-15.852 14.457 14.457 0 0 0-15.656-3.623 199.807 199.807 0 0 0-68.981 41.271l-.078-.085zm225.803-201.734a14.41 14.41 0 0 0 5.255 23.326 60.048 60.048 0 0 0 10.785 3.413 14.393 14.393 0 0 0 11.029-1.746 14.414 14.414 0 0 0 .519-24.163 14.421 14.421 0 0 0-5.249-2.212 31.936 31.936 0 0 1-6.118-1.902 14.414 14.414 0 0 0-16.221 3.284zm-102.927 96.737a14.416 14.416 0 0 0-2.218 16.656 14.42 14.42 0 0 0 3.813 4.55 200.27 200.27 0 0 0 70.244 39.33 200.158 200.158 0 0 0 80.022 8.179 14.417 14.417 0 0 0 8.248-25.327 14.415 14.415 0 0 0-10.49-3.416 171.104 171.104 0 0 1-69.222-6.969 171.198 171.198 0 0 1-60.522-34.004 14.41 14.41 0 0 0-19.875 1.001zm76.351-58.493a14.415 14.415 0 0 0 4.052 22.866 107.223 107.223 0 0 0 39.598 12.517 14.41 14.41 0 0 0 16.331-18.203 14.408 14.408 0 0 0-12.786-10.366 78.287 78.287 0 0 1-29.699-9.388 14.412 14.412 0 0 0-17.496 2.574zm-34.413 32.758a14.41 14.41 0 0 0-1.741 17.605 14.413 14.413 0 0 0 4.44 4.466 153.699 153.699 0 0 0 41.053 20.253 153.788 153.788 0 0 0 45.226 7.053 14.412 14.412 0 0 0 11.184-24.152c-2.803-3.061-6.726-4.785-10.565-4.709a124.643 124.643 0 0 1-70.99-22.389 14.413 14.413 0 0 0-18.77 1.866l.163.007zm-731.462 698.464c-2.551 2.336-4.154 5.366-4.623 8.61a200.047 200.047 0 0 0 1.184 80.516 200.246 200.246 0 0 0 32.912 73.509 14.443 14.443 0 0 0 9.262 6.028 14.439 14.439 0 0 0 14.552-22.36 171.095 171.095 0 0 1-28.625-63.364 170.987 170.987 0 0 1-.851-69.567 14.409 14.409 0 0 0-7.107-15.231 14.409 14.409 0 0 0-16.704 1.859zm597.791-533.716c-11.31 10.355-20.978 22.333-28.663 35.622a14.426 14.426 0 0 0 .694 15.999 14.416 14.416 0 0 0 20.144 3.106 14.416 14.416 0 0 0 3.8-4.145 124.437 124.437 0 0 1 23.49-29.323c9.354-8.564 19.94-15.442 31.275-20.818a14.41 14.41 0 0 0 8.34-14.025 14.415 14.415 0 0 0-10.094-12.819 14.406 14.406 0 0 0-10.979.985 153.468 153.468 0 0 0-38.007 25.418zM-267.573 200.57c-2.891 2.647-4.522 6.329-4.602 9.998a153.57 153.57 0 0 0 3.046 45.671 153.497 153.497 0 0 0 16.484 42.591 14.433 14.433 0 0 0 8.596 6.934 14.427 14.427 0 0 0 16.74-20.752 124.508 124.508 0 0 1-13.634-35.039 124.623 124.623 0 0 1-2.506-37.567 14.41 14.41 0 0 0-8.011-14.174 14.412 14.412 0 0 0-16.113 2.338zM318.25-322.657a104.713 104.713 0 0 0-13.906 15.545 14.413 14.413 0 0 0 14.407 23.077 14.412 14.412 0 0 0 8.573-5.661 77.943 77.943 0 0 1 22.96-21.022 14.427 14.427 0 1 0-15.241-24.501 107.033 107.033 0 0 0-16.793 12.562zM-221.898 214.09c-3.316 3.036-4.969 7.207-4.66 11.301a107.245 107.245 0 0 0 9.063 40.632 14.424 14.424 0 0 0 7.756 8.387 14.428 14.428 0 0 0 11.423.108 14.419 14.419 0 0 0 7.913-8.239 14.408 14.408 0 0 0-.568-11.41 78.293 78.293 0 0 1-6.817-30.495 14.414 14.414 0 0 0-8.731-13.027 14.417 14.417 0 0 0-15.457 2.658l.078.085zm571.213-502.817c-1.361 1.246-2.806 2.57-3.933 4.071a14.413 14.413 0 1 0 21.257 19.461 32.393 32.393 0 0 1 4.677-4.282 14.453 14.453 0 0 0 5.12-15.233 14.467 14.467 0 0 0-17.745-10.173 14.469 14.469 0 0 0-5.053 2.511 62.105 62.105 0 0 0-4.323 3.645zm-524.866 506.655c-3.657 3.348-5.09 8.1-4.562 12.775a61.073 61.073 0 0 0 2.536 10.965 14.42 14.42 0 0 0 6.935 9.041 14.41 14.41 0 0 0 21.432-11.875 14.418 14.418 0 0 0-.895-5.748 31.907 31.907 0 0 1-1.356-6.262 14.407 14.407 0 0 0-2.993-7.227 14.41 14.41 0 0 0-21.097-1.669zm45.934-5.32a14.412 14.412 0 1 0 19.465 21.26 14.412 14.412 0 0 0-19.465-21.26zm510.996-467.85a14.45 14.45 0 0 0-2.282 20.301 14.447 14.447 0 0 0 25.172-13.012 14.447 14.447 0 0 0-22.89-7.289zM-85.129 197.514a14.294 14.294 0 0 0-4.613 15.791 32.062 32.062 0 0 1 1.356 6.262 14.418 14.418 0 0 0 5.448 9.747 14.403 14.403 0 0 0 10.775 2.93 14.403 14.403 0 0 0 9.634-5.645 14.415 14.415 0 0 0 2.71-10.832 62.958 62.958 0 0 0-2.366-11.122 14.411 14.411 0 0 0-22.944-7.131zm105.34-94.101a14.294 14.294 0 0 0-2.583 19.716 171.104 171.104 0 0 1 28.54 63.443 171.099 171.099 0 0 1 .937 69.488 14.417 14.417 0 0 0 11.835 16.598 14.401 14.401 0 0 0 10.75-2.48 14.417 14.417 0 0 0 5.849-9.356 200.04 200.04 0 0 0-1.184-80.516 200.264 200.264 0 0 0-32.912-73.509 14.417 14.417 0 0 0-9.858-6.445 14.411 14.411 0 0 0-11.374 3.061zm-64.82 70.915a14.297 14.297 0 0 0-4.19 17.279 78.171 78.171 0 0 1 6.74 30.41A14.413 14.413 0 1 0-13.29 221a106.764 106.764 0 0 0-8.985-40.546 14.418 14.418 0 0 0-9.68-8.695 14.406 14.406 0 0 0-12.74 2.647l.085-.078zm35.658-31.397a14.295 14.295 0 0 0-3.424 18.455 124.524 124.524 0 0 1 13.464 35.195 124.52 124.52 0 0 1 2.513 37.405 14.41 14.41 0 0 0 7.96 14.148 14.409 14.409 0 0 0 16.078-2.235c2.977-2.725 4.523-6.329 4.766-9.991a153.692 153.692 0 0 0-3.131-45.593c-3.334-15.081-8.907-29.363-16.477-42.753a14.405 14.405 0 0 0-9.783-7.442 14.405 14.405 0 0 0-11.966 2.811zm416.556-359.967a14.414 14.414 0 1 0 19.294 21.415 59.667 59.667 0 0 0 8.334-7.63 14.446 14.446 0 0 0 2.928-4.827 14.469 14.469 0 0 0-19.711-18.058 14.456 14.456 0 0 0-4.552 3.338 31.122 31.122 0 0 1-4.677 4.282c-.608.473-1.177.994-1.701 1.557l.085-.077zM241.017-57.167a14.416 14.416 0 0 0-3.428 16.598 14.413 14.413 0 0 0 14.731 8.382 171.104 171.104 0 0 1 69.052 7.124 171.561 171.561 0 0 1 60.692 33.849 14.414 14.414 0 0 0 20.993-1.347 14.41 14.41 0 0 0-2.713-20.86 200.169 200.169 0 0 0-70.329-39.252 200.042 200.042 0 0 0-80.022-8.18 14.296 14.296 0 0 0-9.061 3.764l.085-.078zm187.28-118.317a14.409 14.409 0 0 0-1.814 19.396 14.41 14.41 0 0 0 19.167 3.484 107.116 107.116 0 0 0 30.614-28.029 14.417 14.417 0 0 0-2.455-20.516 14.426 14.426 0 0 0-10.858-2.805 14.408 14.408 0 0 0-9.582 5.827 77.934 77.934 0 0 1-22.961 21.022 14.45 14.45 0 0 0-2.189 1.536l.078.085zM260.652-11.99a14.415 14.415 0 0 0-3.748 15.845 14.417 14.417 0 0 0 13.414 9.227c12.565.064 25.214 1.927 37.124 5.716a124.518 124.518 0 0 1 33.867 16.672 14.411 14.411 0 0 0 22.361-14.846c-.89-3.875-3.282-7-6.291-9.09a153.676 153.676 0 0 0-41.138-20.176 153.686 153.686 0 0 0-45.14-7.13 14.412 14.412 0 0 0-10.372 3.867l-.077-.085zM438.12-128.046a14.414 14.414 0 0 0 7.658 23.66c3.287.725 6.725.277 9.717-1.268a153.33 153.33 0 0 0 38.091-25.496c11.31-10.355 20.979-22.333 28.579-35.545a14.414 14.414 0 0 0-4.84-19.799 14.414 14.414 0 0 0-19.799 4.84 124.519 124.519 0 0 1-23.489 29.322 122.966 122.966 0 0 1-31.276 20.818 14.433 14.433 0 0 0-4.641 3.468zM270.107 34.535a14.41 14.41 0 0 0-3.904 15.14 14.409 14.409 0 0 0 12.19 9.789 78.17 78.17 0 0 1 29.699 9.388 14.415 14.415 0 0 0 20.396-7.559 14.421 14.421 0 0 0 .614-8.081c-.869-4.364-3.735-7.836-7.403-9.793a106.878 106.878 0 0 0-39.762-12.524 14.407 14.407 0 0 0-11.83 3.64zM440.06-79.486A14.414 14.414 0 0 0 446-55.54c3.174.983 6.59.838 9.67-.408a199.813 199.813 0 0 0 69.06-41.187 199.819 199.819 0 0 0 47.188-65.245 14.429 14.429 0 0 0-12.281-20.617 14.429 14.429 0 0 0-13.776 8.206 170.87 170.87 0 0 1-40.596 56.397c-17.178 15.727-37.625 27.883-59.664 35.398a14.53 14.53 0 0 0-5.541 3.51zM269.931 81.124a14.408 14.408 0 0 0-4.12 14.433 14.417 14.417 0 0 0 10.947 10.269c2.07.464 4.09 1.126 6.033 1.98a14.417 14.417 0 0 0 14.984-2.04 14.417 14.417 0 0 0 4.914-14.302 14.948 14.948 0 0 0-8.847-10.346 61.82 61.82 0 0 0-10.792-3.25 14.41 14.41 0 0 0-13.119 3.257zm-10.184 45.904a14.414 14.414 0 0 0-.055 19.747l21.26-19.465a14.418 14.418 0 0 0-10.541-4.792 14.425 14.425 0 0 0-10.664 4.51zm-880.163-258.4a14.408 14.408 0 0 0 20.362.898 14.412 14.412 0 0 0 .898-20.362l-21.26 19.464zM59.892-754.238a14.41 14.41 0 0 0 25.028-9.097 14.411 14.411 0 0 0-3.768-10.367l-21.26 19.464zm-242.92 223.504a197.73 197.73 0 0 0-56.338 87.692 199.804 199.804 0 0 0 43.009 194.324 198.77 198.77 0 0 0 166.936 63.667 14.416 14.416 0 0 0-2.242-28.743 169.946 169.946 0 0 1-143.434-54.388 170.867 170.867 0 0 1-36.829-166.061 169.711 169.711 0 0 1 107.169-109.689 14.408 14.408 0 0 0 9.79-13.873 14.413 14.413 0 0 0-10.212-13.565 14.41 14.41 0 0 0-9.732.468 199.94 199.94 0 0 0-68.032 40.09l-.085.078zM-695.3-61.716a199.919 199.919 0 0 0-45.927 64.403 14.408 14.408 0 0 0 1.138 17.07 14.407 14.407 0 0 0 16.644 3.957 14.418 14.418 0 0 0 8.034-8.709A169.718 169.718 0 0 1-596.804-82.02 170.872 170.872 0 0 1-434.542-30.8a169.953 169.953 0 0 1 41.557 147.663 14.421 14.421 0 0 0 2.48 10.75 14.421 14.421 0 0 0 9.356 5.848 14.402 14.402 0 0 0 10.75-2.48 14.418 14.418 0 0 0 5.848-9.356 198.77 198.77 0 0 0-48.732-171.89 199.806 199.806 0 0 0-189.552-59.685A197.734 197.734 0 0 0-695.3-61.716zM41.832-731.45a14.407 14.407 0 0 0-3.58 13.062 14.405 14.405 0 0 0 8.835 10.264 60.29 60.29 0 0 0 36.573 3.407 60.757 60.757 0 0 0 44.645-40.875 60.3 60.3 0 0 0-.091-36.809 14.44 14.44 0 0 0-18.108-9.448 14.443 14.443 0 0 0-9.448 18.108 31.823 31.823 0 0 1-42.52 38.929 14.416 14.416 0 0 0-16.306 3.362zM-61.25-634.882a14.408 14.408 0 0 0-2.288 16.794 14.415 14.415 0 0 0 3.876 4.575 198.66 198.66 0 0 0 173.194 43.867 199.453 199.453 0 0 0 146.691-134.305 198.66 198.66 0 0 0-28.458-176.382 14.409 14.409 0 0 0-15.14-6.797 14.411 14.411 0 0 0-8.59 23.051 169.952 169.952 0 0 1 24.663 151.407 170.644 170.644 0 0 1-125.432 114.841 169.951 169.951 0 0 1-148.564-37.967 14.41 14.41 0 0 0-19.875 1.001l-.077-.085zm76.428-58.408a14.419 14.419 0 0 0-3.758 12.458 14.414 14.414 0 0 0 7.81 10.407 106.304 106.304 0 0 0 74.206 10.534 107 107 0 0 0 78.66-72.019 106.3 106.3 0 0 0-4.119-75.014 14.416 14.416 0 0 0-13.515-9.835 14.419 14.419 0 0 0-10.631 4.518 14.41 14.41 0 0 0-2.3 16.555 77.597 77.597 0 0 1 3.04 55.055 78.059 78.059 0 0 1-57.4 52.555 77.599 77.599 0 0 1-54.575-7.873 14.411 14.411 0 0 0-17.496 2.574l.078.085zm-34.413 32.758a14.41 14.41 0 0 0 2.7 22.071 152.415 152.415 0 0 0 120.143 23.658 153.34 153.34 0 0 0 70.034-36.537 153.337 153.337 0 0 0 42.557-66.548 152.412 152.412 0 0 0-12.995-121.758 14.427 14.427 0 0 0-26.51 2.836 14.43 14.43 0 0 0 1.174 10.981 123.71 123.71 0 0 1 10.806 99.22 124.294 124.294 0 0 1-91.417 83.698A123.72 123.72 0 0 1-.55-662.32a14.412 14.412 0 0 0-18.685 1.788zm280.497-228.049a14.41 14.41 0 0 0 11.303 24.98c6.148-.626 12.367-1.005 18.564-.895l-24.837-27.128a13.626 13.626 0 0 0-5.108 2.958l.078.085zm-671.804 615.08c-2.552 2.336-4.154 5.366-4.546 8.695a198.776 198.776 0 0 0 48.654 171.805 199.816 199.816 0 0 0 189.702 60.018A198.43 198.43 0 0 0-38.256-145.698a14.436 14.436 0 0 0 .572-11.03 14.425 14.425 0 0 0-7.395-8.204 14.443 14.443 0 0 0-11.03-.571 14.415 14.415 0 0 0-8.203 7.395 169.716 169.716 0 0 1-118.686 96.94 170.872 170.872 0 0 1-162.176-51.298 169.951 169.951 0 0 1-41.48-147.578 14.406 14.406 0 0 0-7.103-15.441 14.412 14.412 0 0 0-16.871 2.062l.086-.078zM-754.092 42.76l24.837 27.128a169.717 169.717 0 0 1 124.869 55.284c32.311 35.291 47.858 82.492 44.083 129.249l25.07 27.383a199.92 199.92 0 0 0-47.893-176.097A198.774 198.774 0 0 0-750.062 42.04a14.41 14.41 0 0 0-3.952.805l-.078-.085zm601.01-538.226a151.848 151.848 0 0 0-42.345 66.438 153.461 153.461 0 0 0 33.086 149.167 152.546 152.546 0 0 0 111.897 49.652 14.41 14.41 0 0 0 14.825-16.536 14.416 14.416 0 0 0-3.563-7.531c-2.88-3.146-6.726-4.785-10.565-4.709a123.708 123.708 0 0 1-91.335-40.341 124.528 124.528 0 0 1-26.82-120.98 123.484 123.484 0 0 1 65.737-75.037 14.414 14.414 0 0 0-12.734-25.86 153.377 153.377 0 0 0-38.261 25.652l.078.085zM-662.803-28.784a153.344 153.344 0 0 0-28.919 35.857 14.429 14.429 0 0 0-1.925 5.284 14.42 14.42 0 0 0 12.048 16.44 14.416 14.416 0 0 0 14.516-6.765 123.478 123.478 0 0 1 80.451-58.965A124.525 124.525 0 0 1-468.402.513a123.717 123.717 0 0 1 32.07 94.446 14.419 14.419 0 0 0 3.249 10.904 14.399 14.399 0 0 0 4.544 3.618 14.424 14.424 0 0 0 16.322-2.283 14.407 14.407 0 0 0 4.611-10.402A152.534 152.534 0 0 0-447.22-19.036 153.46 153.46 0 0 0-592.982-65.04a151.841 151.841 0 0 0-69.814 36.094l-.007.162zm943.699-814.619a14.417 14.417 0 0 0-3.641 15.82 14.415 14.415 0 0 0 13.393 9.173c18.82.061 37.38 4.395 54.281 12.675l-37.06-40.478a153.6 153.6 0 0 0-16.524-.973 14.41 14.41 0 0 0-10.449 3.783zM-367.352-249.89c-2.892 2.647-4.523 6.329-4.603 9.998a152.544 152.544 0 0 0 39.537 115.747 153.459 153.459 0 0 0 145.754 46.167 152.195 152.195 0 0 0 98.903-72.106 14.41 14.41 0 0 0-15.356-21.894 14.414 14.414 0 0 0-9.282 6.935 123.475 123.475 0 0 1-80.53 58.88 124.527 124.527 0 0 1-118.23-37.446 123.713 123.713 0 0 1-32.07-94.445 14.417 14.417 0 0 0-8.011-14.174 14.413 14.413 0 0 0-16.112 2.338zm247.199-213.195a106.06 106.06 0 0 0-31.164 47.916 107.227 107.227 0 0 0 22.991 104.165c18.219 19.899 42.194 31.401 66.968 34.043a14.407 14.407 0 0 0 14.931-6.927 14.417 14.417 0 0 0-1.302-16.409 14.418 14.418 0 0 0-10.085-5.233 77.597 77.597 0 0 1-49.337-24.861c-18.686-20.409-25.071-49.58-16.726-75.979a77.48 77.48 0 0 1 34.228-43.375 14.405 14.405 0 0 0 6.39-8.995 14.418 14.418 0 0 0-21.717-15.428 105.65 105.65 0 0 0-15.177 11.083zM-633.531 6.945a100.632 100.632 0 0 0-12.29 14.066 14.424 14.424 0 0 0-.952 15.99 14.422 14.422 0 0 0 14.409 7 14.417 14.417 0 0 0 9.523-5.575 77.482 77.482 0 0 1 46.133-30.2 78.173 78.173 0 0 1 74.291 23.43c13.313 14.542 20.095 32.876 20.424 51.334a14.414 14.414 0 0 0 8.678 13.005 14.413 14.413 0 0 0 15.425-2.558c3.401-3.114 4.976-7.37 4.589-11.549a106.302 106.302 0 0 0-27.935-69.78A107.225 107.225 0 0 0-582.973-19.96a106.076 106.076 0 0 0-50.473 26.827l-.085.078zm-79.063 81.14l36.905 40.309a123.716 123.716 0 0 1 61.508 67.18l36.983 40.394a153.354 153.354 0 0 0-40.099-99.288 152.197 152.197 0 0 0-95.219-48.51l-.078-.084zM290.267-796.8a14.416 14.416 0 0 0-3.905 15.139 14.408 14.408 0 0 0 12.191 9.79 77.598 77.598 0 0 1 49.337 24.861c18.686 20.41 25.149 49.665 16.804 76.064a77.48 77.48 0 0 1-34.143 43.297 14.427 14.427 0 0 0 15.241 24.501c21.383-13.012 38.281-33.485 46.427-59.077a107.226 107.226 0 0 0-23.07-104.249c-18.141-19.814-42.201-31.239-67.052-33.966a14.4 14.4 0 0 0-11.745 3.562l-.085.078zm-612.022 560.346c-3.317 3.036-4.892 7.292-4.583 11.386a106.311 106.311 0 0 0 27.935 69.781 107.216 107.216 0 0 0 46.571 29.669 107.214 107.214 0 0 0 55.159 2.561 106.07 106.07 0 0 0 62.933-41.048 14.415 14.415 0 0 0-13.457-22.99 14.414 14.414 0 0 0-9.523 5.574 77.477 77.477 0 0 1-46.218 30.279 78.168 78.168 0 0 1-74.205-23.51c-13.314-14.541-20.095-32.875-20.424-51.333a14.407 14.407 0 0 0-8.732-13.027 14.414 14.414 0 0 0-15.456 2.658zM-89.69-428.447c-8.065 7.071-14.345 16.26-17.681 27.13a60.87 60.87 0 0 0 13.06 59.169 60.305 60.305 0 0 0 31.833 18.378 14.457 14.457 0 0 0 6.384-28.2 31.826 31.826 0 0 1-20.96-15.017 31.827 31.827 0 0 1-2.955-25.616 31.59 31.59 0 0 1 11.307-15.823 14.41 14.41 0 0 0-1.407-24.079 14.398 14.398 0 0 0-11.048-1.382 14.414 14.414 0 0 0-5.061 2.573 76.865 76.865 0 0 0-3.557 2.945l.085-.078zM-601.622 40.259l-3.246 3.285a14.465 14.465 0 0 0-3.786 10.406 14.465 14.465 0 0 0 15.086 13.821 14.468 14.468 0 0 0 10.035-4.68 31.825 31.825 0 0 1 47.916 1.083 31.82 31.82 0 0 1 7.134 16.359 14.468 14.468 0 0 0 5.568 9.562 14.454 14.454 0 0 0 23.084-13.44 60.304 60.304 0 0 0-15.42-33.404 60.76 60.76 0 0 0-57.628-18.21 60.183 60.183 0 0 0-28.58 15.226l-.163-.008zM290.09-750.21a14.409 14.409 0 0 0 6.827 24.701 31.81 31.81 0 0 1 20.961 15.018 31.814 31.814 0 0 1 2.954 25.615 31.584 31.584 0 0 1-11.391 15.901 14.478 14.478 0 0 0-5.506 9.603 14.466 14.466 0 0 0 12.501 16.189 14.46 14.46 0 0 0 10.684-2.897c9.629-7.41 17.179-17.604 21.074-30.082a60.879 60.879 0 0 0-13.06-59.169 60.298 60.298 0 0 0-31.918-18.299 14.415 14.415 0 0 0-13.126 3.42zm-565.421 517.679c-3.657 3.348-5.09 8.1-4.562 12.775a60.308 60.308 0 0 0 15.506 33.326c14.559 15.902 36.688 22.998 57.705 18.293a60.18 60.18 0 0 0 31.827-18.509 14.412 14.412 0 1 0-21.258-19.462 31.815 31.815 0 0 1-33.096 8.863 31.825 31.825 0 0 1-21.954-26.305 14.417 14.417 0 0 0-9.308-11.959 14.408 14.408 0 0 0-14.86 2.978zm45.856-5.405a14.411 14.411 0 0 0 9.098 25.028 14.409 14.409 0 0 0 15.033-13.763 14.413 14.413 0 0 0-24.131-11.265zm170.077-155.716a14.411 14.411 0 1 0 19.463 21.259 14.411 14.411 0 0 0-19.462-21.259zm-510.996 467.85a14.447 14.447 0 0 0 .569 20.427 14.44 14.44 0 0 0 10.331 3.946 14.454 14.454 0 0 0 10.095-4.515 14.45 14.45 0 1 0-20.995-19.858zm851.916-779.984a14.456 14.456 0 0 0-4.933 15.279 14.456 14.456 0 0 0 12.229 10.404c1.884.22 3.794.066 5.619-.453a14.448 14.448 0 0 0-2.277-28.252 14.451 14.451 0 0 0-10.638 3.022zM35.996-460.201A198.655 198.655 0 0 0 9.06-197.146a14.41 14.41 0 0 0 14.065 6.579 14.41 14.41 0 0 0 11.874-10.006 14.414 14.414 0 0 0-2.21-12.828A169.946 169.946 0 0 1 8.04-364.73a170.64 170.64 0 0 1 125.432-114.841 169.955 169.955 0 0 1 148.564 37.967 14.44 14.44 0 0 0 20.325-1.96 14.438 14.438 0 0 0-1.96-20.325 198.656 198.656 0 0 0-264.405 3.688zm370.13-278.693a124.405 124.405 0 0 1 2.592 81.884 123.485 123.485 0 0 1-65.814 74.951 14.412 14.412 0 0 0 1.84 26.767c1.811.588 3.72.811 5.618.656a14.399 14.399 0 0 0 5.438-1.556 152.186 152.186 0 0 0 64.931-58.063 152.185 152.185 0 0 0 22.455-84.161l-37.06-40.478zM67.14-426.186a152.425 152.425 0 0 0-29.52 188.353 14.413 14.413 0 0 0 26.462-2.343 14.411 14.411 0 0 0-1.127-11.475 123.713 123.713 0 0 1-10.805-99.22 124.288 124.288 0 0 1 91.331-83.62 123.722 123.722 0 0 1 97.885 19.494 14.41 14.41 0 0 0 21.576-6.47 14.406 14.406 0 0 0 .708-8.461c-.805-3.953-3.197-7.078-6.291-9.091a152.42 152.42 0 0 0-190.297 12.748l.078.085zm31.143 34.016a106.3 106.3 0 0 0-25.599 121.608 14.44 14.44 0 0 0 13.401 8.825 14.437 14.437 0 0 0 10.183-4.298 14.441 14.441 0 0 0 3.025-15.759 77.593 77.593 0 0 1-3.204-55.062 78.062 78.062 0 0 1 57.401-52.555 77.596 77.596 0 0 1 54.575 7.874 14.421 14.421 0 1 0 13.606-25.433 106.3 106.3 0 0 0-123.466 14.714l.078.086zm361.721-287.878a169.722 169.722 0 0 1-114.346 146.585 14.414 14.414 0 1 0 10.155 26.97 198.427 198.427 0 0 0 129.261-146.172l-25.07-27.383zm-330.5 321.978a60.535 60.535 0 0 0-16.817 63.075 14.415 14.415 0 0 0 27.55-8.497 32.325 32.325 0 0 1-.201-19.513 31.819 31.819 0 0 1 17.109-19.288 31.831 31.831 0 0 1 25.781-.284 14.412 14.412 0 0 0 19.657-16.434c-1.095-4.781-4.358-8.516-8.769-10.261a60.306 60.306 0 0 0-64.31 11.202zM-178.742-13.322a14.462 14.462 0 0 0-5.385 9.659 14.43 14.43 0 0 0 .453 5.62 14.434 14.434 0 0 0 6.863 8.671 14.445 14.445 0 0 0 16.003-1.29 14.45 14.45 0 1 0-17.934-22.66zm338.624-310.032a14.405 14.405 0 0 0-4.477 10.465 14.406 14.406 0 0 0 9.452 13.508c1.837.673 3.792.965 5.746.859a14.418 14.418 0 0 0 10.196-5.059 14.448 14.448 0 1 0-20.995-19.858l.078.085zM84.78-233.959a199.813 199.813 0 0 0-46.075 64.07 14.462 14.462 0 1 0 26.05 12.573 169.72 169.72 0 0 1 118.685-96.94 170.867 170.867 0 0 1 162.261 51.22A169.94 169.94 0 0 1 387.096-55.38a14.494 14.494 0 0 0 22.722 14.18 14.498 14.498 0 0 0 5.875-9.412A198.77 198.77 0 0 0 366.961-222.5a199.808 199.808 0 0 0-189.787-59.941 197.737 197.737 0 0 0-92.309 48.404l-.084.078zm-508.02 465.125a197.733 197.733 0 0 0-61.229 106.083l25.07 27.382a169.72 169.72 0 0 1 114.346-146.585 14.41 14.41 0 0 0 9.789-13.873 14.411 14.411 0 0 0-10.212-13.565 14.297 14.297 0 0 0-9.732.468 199.949 199.949 0 0 0-68.032 40.09zm224.697-200.722a14.417 14.417 0 0 0-.443 19.297 14.415 14.415 0 0 0 5.699 4.029 60.186 60.186 0 0 0 36.658 3.33 60.764 60.764 0 0 0 44.56-40.798 60.193 60.193 0 0 0-.091-36.809 14.423 14.423 0 0 0-6.935-9.041 14.415 14.415 0 0 0-19.982 6.242 14.426 14.426 0 0 0-.555 11.381 31.82 31.82 0 0 1-24.859 41 31.82 31.82 0 0 1-17.745-1.993 14.413 14.413 0 0 0-16.307 3.362zm-103.004 96.651a14.42 14.42 0 0 0-3.882 11.017 14.409 14.409 0 0 0 5.555 10.275 198.765 198.765 0 0 0 173.109 43.945A199.466 199.466 0 0 0 20.012 57.949 198.771 198.771 0 0 0-8.532-118.355a14.414 14.414 0 0 0-20.54-4.539 14.425 14.425 0 0 0-6.102 9.706 14.406 14.406 0 0 0 2.913 11.087A169.95 169.95 0 0 1-7.513 49.228a169.952 169.952 0 0 1-199.671 114.831 169.949 169.949 0 0 1-74.41-37.879 14.413 14.413 0 0 0-19.875 1.001l-.078-.086zm76.514-58.485a14.4 14.4 0 0 0-3.418 5.78 14.415 14.415 0 0 0 7.384 17.164 106.303 106.303 0 0 0 74.447 10.625 106.991 106.991 0 0 0 78.576-71.94 106.304 106.304 0 0 0-4.035-75.093 14.441 14.441 0 1 0-26.61 11.231 77.595 77.595 0 0 1 3.127 54.977 78.057 78.057 0 0 1-57.486 52.633 77.597 77.597 0 0 1-54.49-7.951 14.411 14.411 0 0 0-17.495 2.574zm-34.498 32.836a14.41 14.41 0 0 0 2.777 22.156 152.415 152.415 0 0 0 120.065 23.572A153.336 153.336 0 0 0-24.013 44.012a152.42 152.42 0 0 0-13.08-121.68 14.412 14.412 0 0 0-26.462 2.342 14.413 14.413 0 0 0 1.127 11.475 123.714 123.714 0 0 1 10.805 99.22 124.29 124.29 0 0 1-91.331 83.62 123.722 123.722 0 0 1-97.807-19.409 14.414 14.414 0 0 0-18.77 1.866zm629.076-547.353c-2.551 2.336-4.076 5.451-4.545 8.695a198.776 198.776 0 0 0 48.654 171.805 199.816 199.816 0 0 0 189.701 60.018 198.426 198.426 0 0 0 138.477-112.715 14.405 14.405 0 0 0-2.066-16.068 14.4 14.4 0 0 0-10.065-4.84 14.405 14.405 0 0 0-10.501 3.805 14.408 14.408 0 0 0-3.34 4.615 169.723 169.723 0 0 1-118.692 97.103 170.869 170.869 0 0 1-162.254-51.383 169.944 169.944 0 0 1-41.48-147.578 14.413 14.413 0 0 0-23.889-13.457zM20.887-126.688a14.413 14.413 0 0 0 11.381 25.065 169.951 169.951 0 0 1 143.356 54.304 170.876 170.876 0 0 1 36.744 166.138 169.707 169.707 0 0 1-107.006 109.696 14.414 14.414 0 0 0-6.866 22.2 14.406 14.406 0 0 0 7.211 5.153 14.294 14.294 0 0 0 9.724-.305A198.43 198.43 0 0 0 239.893 127.54a199.804 199.804 0 0 0-43.009-194.324A198.77 198.77 0 0 0 29.948-130.45a14.3 14.3 0 0 0-8.983 3.848l-.078-.085zm515.028-470.447a199.93 199.93 0 0 0 47.894 176.096 198.768 198.768 0 0 0 166.935 63.667c1.473-.098 2.791-.367 3.953-.805l-24.759-27.042a169.843 169.843 0 0 1-124.869-55.284c-32.234-35.206-47.858-82.492-44.005-129.165l-25.149-27.467zm-418.708 395.86a153.332 153.332 0 0 0-28.92 35.857 14.413 14.413 0 0 0 24.639 14.959 123.488 123.488 0 0 1 80.53-58.879 124.52 124.52 0 0 1 118.145 37.523 123.715 123.715 0 0 1 32.07 94.445 14.4 14.4 0 0 0 3.249 10.905 14.413 14.413 0 0 0 25.477-9.067 152.542 152.542 0 0 0-39.452-115.825 153.454 153.454 0 0 0-145.839-46.089 151.96 151.96 0 0 0-69.822 36.257l-.077-.086zm-510.664 467.702a151.853 151.853 0 0 0-49.202 116.487l37.138 40.564a124.406 124.406 0 0 1-2.67-81.969 123.468 123.468 0 0 1 65.814-74.952 14.414 14.414 0 0 0-1.536-26.96 14.42 14.42 0 0 0-11.282 1.178 153.383 153.383 0 0 0-38.262 25.652zm806.192-688.723c-2.891 2.647-4.522 6.329-4.602 9.998a152.527 152.527 0 0 0 39.536 115.747 153.466 153.466 0 0 0 145.755 46.167 152.186 152.186 0 0 0 98.903-72.105 14.415 14.415 0 0 0-4.84-19.799 14.41 14.41 0 0 0-19.799 4.839 123.593 123.593 0 0 1-80.529 58.88 124.524 124.524 0 0 1-118.152-37.361 123.708 123.708 0 0 1-32.07-94.445 14.412 14.412 0 0 0-24.124-11.836l-.078-.085zM40.522-81.51a14.412 14.412 0 0 0 9.83 25.078 123.714 123.714 0 0 1 91.257 40.256 124.532 124.532 0 0 1 29.528 56.917 124.53 124.53 0 0 1-2.708 64.064 123.48 123.48 0 0 1-65.737 75.036 14.43 14.43 0 0 0-7.278 8.289 14.413 14.413 0 0 0 20.012 17.571 152.19 152.19 0 0 0 80.443-92.097 153.46 153.46 0 0 0-33.001-149.245A152.536 152.536 0 0 0 50.971-85.293a14.296 14.296 0 0 0-10.364 3.705l-.085.078zm106.035-83.951c-4.514 4.289-8.561 9.089-12.29 14.066a14.413 14.413 0 0 0 14.407 23.076 14.41 14.41 0 0 0 8.573-5.66 77.48 77.48 0 0 1 46.133-30.202 78.171 78.171 0 0 1 74.29 23.432c13.392 14.626 20.173 32.96 20.424 51.333a14.415 14.415 0 0 0 16.768 14 14.41 14.41 0 0 0 7.335-3.553c3.402-3.114 4.977-7.37 4.668-11.464a106.308 106.308 0 0 0-27.935-69.781 107.232 107.232 0 0 0-101.815-32.152 106.07 106.07 0 0 0-50.473 26.827l-.085.078zm-507 464.191a106.067 106.067 0 0 0-31.093 48.164 107.229 107.229 0 0 0 22.914 104.079c18.218 19.899 42.201 31.239 67.052 33.966a14.413 14.413 0 0 0 14.7-7.599 14.412 14.412 0 0 0-2.135-16.41c-2.336-2.551-5.607-4.246-9.021-4.56a77.594 77.594 0 0 1-49.337-24.861c-18.686-20.409-25.149-49.665-16.804-76.064a77.48 77.48 0 0 1 34.143-43.297 14.407 14.407 0 0 0 6.391-8.995 14.425 14.425 0 0 0-1.842-10.88 14.42 14.42 0 0 0-19.875-4.548 104.638 104.638 0 0 0-15.093 11.005zm938.246-850.114a153.461 153.461 0 0 0 39.943 99.117 152.189 152.189 0 0 0 95.375 48.679l-36.905-40.308a123.825 123.825 0 0 1-61.43-67.095l-37.061-40.479.078.086zM458.332-408.861c-3.316 3.036-4.813 7.377-4.589 11.549a106.301 106.301 0 0 0 27.935 69.781 107.22 107.22 0 0 0 101.737 32.067 106.076 106.076 0 0 0 62.933-41.048 14.43 14.43 0 0 0 2.792-10.675 14.415 14.415 0 0 0-25.772-6.741 77.481 77.481 0 0 1-46.141 30.364 78.173 78.173 0 0 1-74.283-23.595 77.29 77.29 0 0 1-20.346-51.248 14.414 14.414 0 0 0-8.731-13.027 14.408 14.408 0 0 0-15.457 2.658l-.078-.085zM50.14-34.979a14.412 14.412 0 0 0 8.201 25.007 77.594 77.594 0 0 1 49.337 24.861c18.686 20.41 25.149 49.665 16.889 75.986a77.477 77.477 0 0 1-34.228 43.375 14.419 14.419 0 0 0-.686 23.965 14.417 14.417 0 0 0 16.013.458c21.298-12.934 38.195-33.407 46.426-59.077A107.226 107.226 0 0 0 128.853-4.497c-18.219-19.9-42.201-31.239-67.053-33.966a14.413 14.413 0 0 0-11.83 3.64l.17-.156zm128.496-97.323a29.825 29.825 0 0 0-3.168 3.369 14.403 14.403 0 0 0-2.841 16.037 14.418 14.418 0 0 0 8.255 7.619 14.402 14.402 0 0 0 11.216-.622 14.41 14.41 0 0 0 4.542-3.494 31.82 31.82 0 0 1 48.033 1.088 31.82 31.82 0 0 1 7.095 16.439 14.41 14.41 0 0 0 5.586 9.522 14.413 14.413 0 0 0 10.683 2.783 14.425 14.425 0 0 0 12.305-16.268A60.299 60.299 0 0 0 265-129.148c-14.56-15.902-36.774-22.921-57.791-18.216a60.18 60.18 0 0 0-28.581 15.225l.008-.163zm-508.538 465.755c-8.064 7.071-14.267 16.345-17.68 27.13a60.754 60.754 0 0 0 12.975 59.247 60.3 60.3 0 0 0 31.918 18.3 14.462 14.462 0 0 0 14.997-5.755 14.47 14.47 0 0 0 2.443-10.792 14.469 14.469 0 0 0-5.903-9.358 14.463 14.463 0 0 0-5.153-2.295 31.82 31.82 0 0 1-12.609-56.456 14.408 14.408 0 0 0 5.36-15.238 14.425 14.425 0 0 0-6.767-8.841 14.397 14.397 0 0 0-11.047-1.382 14.398 14.398 0 0 0-5.062 2.574 78.742 78.742 0 0 0-3.557 2.944l.085-.078zM504.92-404.931c-3.657 3.348-5.168 8.015-4.562 12.775a60.306 60.306 0 0 0 15.505 33.326 60.884 60.884 0 0 0 57.706 18.294 60.185 60.185 0 0 0 31.826-18.51 14.459 14.459 0 0 0 2.444-15.888 14.472 14.472 0 0 0-8.165-7.481 14.478 14.478 0 0 0-11.062.484 14.46 14.46 0 0 0-4.552 3.339 31.825 31.825 0 0 1-47.916-1.084 31.817 31.817 0 0 1-7.134-16.359 14.407 14.407 0 0 0-2.993-7.227 14.404 14.404 0 0 0-14.125-5.217 14.422 14.422 0 0 0-6.972 3.548zM49.964 11.611a14.412 14.412 0 0 0 6.742 24.78 31.822 31.822 0 0 1 12.608 56.456 14.468 14.468 0 1 0 17.594 22.972c9.708-7.325 17.264-17.682 21.082-30.245a60.757 60.757 0 0 0-13.152-58.928c-8.798-9.61-20.035-15.735-31.918-18.3a14.412 14.412 0 0 0-13.041 3.343l.085-.078zm-349.658 356.714a14.41 14.41 0 0 0 9.098 25.028 14.409 14.409 0 0 0 10.366-3.769 14.41 14.41 0 1 0-19.464-21.259zm850.385-778.583a14.409 14.409 0 0 0-.897 20.362 14.412 14.412 0 1 0 .897-20.362zM41.225 56.191A14.45 14.45 0 1 0 59.16 78.852a14.45 14.45 0 0 0-17.935-22.661zM209.772-98.124a14.448 14.448 0 0 0 16.396 23.12 14.452 14.452 0 0 0 8.545-13.593 14.45 14.45 0 0 0-24.941-9.527zm-413.987 399.823a198.657 198.657 0 0 0-27.108 263.21 14.415 14.415 0 0 0 21.405 3.194 14.409 14.409 0 0 0 4.456-6.705 14.41 14.41 0 0 0-2.209-12.828 169.955 169.955 0 0 1-24.585-151.322 170.637 170.637 0 0 1 125.432-114.841A169.951 169.951 0 0 1 41.74 320.374a14.413 14.413 0 0 0 23.718-6.528 14.408 14.408 0 0 0-5.439-15.679 198.659 198.659 0 0 0-264.319 3.61l.085-.078zm-140.031 188.704l36.904 40.308a153.808 153.808 0 0 0 16.602 1.058 14.416 14.416 0 0 0 13.778-8.263 14.413 14.413 0 0 0-2.432-15.882c-2.88-3.146-6.81-4.707-10.564-4.709a124.285 124.285 0 0 1-54.288-12.512zm171.089-154.611a152.42 152.42 0 0 0-29.598 188.268 14.43 14.43 0 0 0 25.336-13.818 123.727 123.727 0 0 1-15.853-48.472 123.73 123.73 0 0 1 5.047-50.748 124.297 124.297 0 0 1 91.417-83.698 123.734 123.734 0 0 1 51.01-.483 123.727 123.727 0 0 1 46.867 20.14 14.41 14.41 0 0 0 16.228.124 14.412 14.412 0 0 0 6.056-15.055c-.805-3.953-3.197-7.078-6.29-9.091a152.423 152.423 0 0 0-190.22 12.833zm31.143 34.015A106.307 106.307 0 0 0-167.69 491.33a14.438 14.438 0 0 0 18.92 7.689 14.442 14.442 0 0 0 7.689-18.92 77.593 77.593 0 0 1-3.119-55.14 78.049 78.049 0 0 1 21.684-33.941 78.045 78.045 0 0 1 35.717-18.614 77.597 77.597 0 0 1 54.567 8.037 14.412 14.412 0 0 0 21.095-15.718 14.18 14.18 0 0 0-7.566-9.8 106.3 106.3 0 0 0-123.311 14.884zm-148.51 179.273l24.759 27.042a14.409 14.409 0 0 0 9.285-16.715 14.409 14.409 0 0 0-15.48-11.223 170.14 170.14 0 0 1-18.642.811l.078.085zm179.653-145.257a60.53 60.53 0 0 0-16.738 63.16 14.388 14.388 0 0 0 2.536 5.235 14.391 14.391 0 0 0 4.399 3.806 14.412 14.412 0 0 0 20.536-17.623 31.822 31.822 0 0 1 42.69-39.085 14.405 14.405 0 0 0 11.386.448 14.406 14.406 0 0 0 9.238-13.675 14.412 14.412 0 0 0-9.659-13.383 60.301 60.301 0 0 0-64.388 11.117zm30.378 34.716a14.412 14.412 0 0 0-.132 19.661l21.26-19.464a14.416 14.416 0 0 0-16.295-3.559 14.414 14.414 0 0 0-4.833 3.362zm681.839-624.267a14.303 14.303 0 0 0-5.48 10.164 14.296 14.296 0 0 0 3.817 10.898l21.26-19.464a14.298 14.298 0 0 0-19.597-1.598z"/></g><defs><clipPath id="clip0_157_82052"><path fill="#fff" transform="rotate(-42.476 -402.9 928.889)" d="M0 0h1256.82v808.243H0z"/></clipPath></defs></svg>